<?xml version="1.0" standalone="no"?>
<!DOCTYPE svg PUBLIC "-//W3C//DTD SVG 20010904//EN"
 "http://www.w3.org/TR/2001/REC-SVG-20010904/DTD/svg10.dtd">
<svg version="1.0" xmlns="http://www.w3.org/2000/svg"
 width="900.000000pt" height="288.000000pt" viewBox="0 0 900.000000 288.000000"
 preserveAspectRatio="xMidYMid meet">
<metadata>
Created by potrace 1.15, written by Peter Selinger 2001-2017
</metadata>
<g transform="translate(0.000000,288.000000) scale(0.100000,-0.100000)"
fill="#000000" stroke="none">
<path d="M55 2527 c-3 -6 -4 -568 -3 -1247 l3 -1235 325 0 325 0 5 520 5 520
323 3 323 2 -8 -57 c-4 -32 -8 -128 -7 -213 1 -141 3 -163 28 -240 85 -261
262 -454 508 -551 l73 -28 295 -1 c273 0 299 2 349 20 117 45 241 125 304 197
18 20 37 42 44 48 39 40 147 240 138 255 -4 6 -116 10 -280 10 l-273 0 -37
-44 c-57 -68 -124 -97 -232 -98 -102 -1 -153 15 -221 71 -57 45 -96 103 -116
171 -30 100 -95 90 564 90 l580 0 0 -23 c0 -53 42 -188 87 -277 90 -181 222
-314 390 -391 l63 -29 244 0 c236 0 273 4 311 32 82 61 119 94 147 129 l33 41
5 -78 5 -79 290 1 c1622 8 1643 8 1626 21 -14 11 -11 13 19 14 19 1 28 3 19 6
-14 3 -16 32 -16 244 0 209 2 241 16 249 10 6 -131 9 -392 7 l-407 -2 0 21 c0
26 -31 56 -37 37 -5 -15 -33 -17 -33 -3 0 6 7 10 15 10 17 0 20 27 5 50 -8 12
-10 12 -11 -5 0 -11 -3 -15 -5 -8 -3 7 -1 20 4 29 9 16 10 15 16 -4 12 -38 26
-24 26 26 3 241 -1 289 -19 285 -24 -6 -9 19 18 28 17 6 28 17 27 27 -1 16 30
17 389 20 l390 2 1 253 c2 254 -2 281 -34 255 -9 -8 -13 -32 -11 -80 1 -37 -1
-71 -4 -75 -4 -3 -7 33 -7 81 l0 87 -372 -2 -373 -2 1 26 c1 15 -3 27 -8 27
-5 0 -6 10 -2 23 4 12 6 70 5 128 -2 90 0 107 14 113 9 3 14 10 11 15 -4 5 -3
16 0 25 5 14 49 16 396 16 257 0 387 3 383 10 -4 6 -132 10 -352 10 -191 0
-344 2 -342 5 3 2 159 5 346 5 187 1 342 3 344 5 2 2 2 108 -1 237 l-5 233
-305 5 -305 5 313 3 c200 1 312 6 312 12 0 9 -374 12 -1660 15 l-285 0 -3
-508 -2 -509 -56 51 c-147 134 -371 180 -614 125 -64 -15 -202 -72 -208 -86
-2 -5 -8 -8 -14 -8 -18 0 -127 -90 -171 -142 -78 -93 -157 -228 -181 -310 l-7
-23 -11 25 c-59 132 -98 201 -147 262 -117 145 -241 225 -436 281 -97 28 -349
35 -461 14 -216 -41 -393 -144 -521 -302 -18 -22 -41 -51 -52 -65 l-20 -25 -1
158 0 157 -370 0 -370 0 2 173 3 172 403 3 402 2 0 280 0 280 -730 0 c-567 0
-732 -3 -735 -13z m5228 -25 l-323 -2 -3 -1188 -2 -1187 -3 1195 -2 1195 327
-5 328 -5 -322 -3z m-2971 -1167 c124 -26 184 -80 233 -212 l13 -33 -315 0
-314 0 7 23 c36 116 131 203 249 227 56 11 53 11 127 -5z m1823 -95 c130 -67
195 -198 195 -397 0 -157 -33 -255 -112 -332 -77 -76 -220 -103 -332 -64 -168
60 -266 282 -222 498 31 151 95 245 200 295 50 24 74 29 136 29 64 1 84 -4
135 -29z"/>
<path d="M6351 1603 c42 -55 105 -113 117 -108 7 2 12 -1 11 -8 -4 -29 2 -47
15 -47 8 0 16 -4 18 -9 2 -5 30 -40 63 -77 68 -77 100 -113 116 -132 8 -10 14
-10 24 -2 10 8 21 4 44 -19 30 -29 40 -51 23 -51 -4 0 -13 5 -20 12 -7 7 -12
8 -12 2 0 -15 55 -74 68 -74 7 0 12 -5 12 -11 0 -15 46 -69 53 -62 3 3 16 -2
29 -12 l23 -16 -30 7 -30 7 40 -36 c21 -20 43 -33 49 -30 5 4 6 1 1 -7 -10
-16 14 -31 40 -25 18 5 18 4 4 -7 -16 -11 -15 -14 3 -39 l20 -27 -25 -27 c-16
-18 -23 -34 -19 -48 3 -13 1 -18 -6 -14 -20 13 -42 -5 -42 -33 0 -31 -14 -45
-45 -45 -15 0 -19 -6 -17 -25 1 -18 -1 -21 -7 -11 -7 11 -12 10 -28 -6 -11
-11 -17 -25 -15 -31 2 -7 -2 -10 -12 -6 -17 6 -19 -1 -17 -46 1 -19 -1 -21 -8
-11 -13 19 -92 -61 -80 -81 14 -22 10 -30 -7 -14 -19 20 -25 20 -18 1 4 -8 1
-15 -6 -15 -16 0 -90 -78 -90 -96 0 -8 -7 -14 -15 -14 -17 0 -20 -26 -4 -36 8
-4 7 -9 -2 -15 -22 -14 -33 -10 -19 6 10 12 10 15 -1 15 -19 0 -44 -41 -30
-49 6 -4 7 -12 0 -21 -8 -13 -10 -13 -19 0 -9 13 -13 11 -31 -10 -26 -33 -59
-83 -59 -92 0 -4 53 -9 118 -11 l117 -3 -122 -2 c-90 -1 -123 1 -123 10 0 6
-13 -1 -30 -17 -34 -32 -33 -45 2 -21 20 14 64 16 351 16 276 -1 330 1 342 14
8 8 15 17 15 20 0 7 71 85 136 150 22 23 43 49 47 58 3 10 11 18 16 18 6 0 8
7 5 15 -4 9 0 15 7 15 24 1 69 48 69 71 0 19 10 12 60 -40 45 -47 66 -62 80
-58 13 3 20 0 20 -9 0 -8 -6 -11 -16 -7 -14 5 -14 3 -3 -14 11 -19 13 -19 31
-4 22 19 68 22 68 4 0 -9 -9 -11 -30 -6 -19 3 -30 1 -30 -6 0 -6 12 -11 26
-11 18 0 25 -4 21 -14 -3 -7 -1 -18 5 -24 8 -8 4 -9 -13 -5 -24 6 -24 6 -6
-15 11 -11 25 -18 32 -16 8 3 12 -2 12 -13 -2 -14 4 -18 26 -16 15 1 25 -2 22
-8 -4 -5 -13 -9 -21 -9 -12 0 -10 -7 8 -29 13 -17 29 -30 36 -30 6 -1 12 -7
12 -15 0 -37 23 -39 366 -41 213 -2 334 1 334 7 0 7 -116 9 -322 7 -178 -2
-300 -1 -273 3 28 3 178 7 334 7 156 1 281 4 278 7 -4 4 -46 7 -94 7 -49 0
-69 2 -45 4 23 2 42 9 42 16 0 8 3 8 12 -1 17 -17 48 -15 48 3 0 8 -26 43 -57
78 -80 87 -83 90 -83 78 0 -6 9 -20 20 -31 10 -10 15 -22 10 -25 -9 -5 -15 2
-36 42 -9 15 -9 24 -1 32 8 8 5 11 -10 11 -15 0 -23 7 -25 22 -2 12 -9 23 -17
26 -10 3 -12 -2 -7 -22 4 -16 2 -26 -5 -26 -6 0 -9 15 -7 37 2 22 -2 38 -9 40
-8 3 -13 -5 -13 -21 0 -14 -4 -26 -10 -26 -6 0 -8 18 -5 43 3 35 0 45 -17 56
-11 7 -17 8 -14 3 3 -6 -1 -12 -9 -16 -8 -3 -18 0 -21 6 -4 7 -2 14 4 16 17 5
15 32 -3 32 -8 0 -15 5 -15 11 0 26 -41 66 -79 78 -46 13 -56 24 -43 48 13 22
-20 58 -44 49 -16 -6 -43 17 -44 38 0 6 6 1 14 -10 8 -10 18 -16 21 -12 10 9
-36 67 -54 67 -7 1 -11 7 -9 14 6 17 -27 48 -40 35 -6 -6 -9 6 -8 35 1 35 8
51 29 73 32 32 18 47 -16 18 -21 -19 -21 -19 -7 1 25 34 40 47 40 36 0 -19 26
-12 48 14 12 14 22 29 22 35 0 5 8 14 18 19 9 6 14 11 11 11 -3 0 21 28 55 61
37 37 56 63 49 66 -24 8 -13 23 11 17 19 -4 27 0 36 17 7 12 34 45 61 72 48
49 59 65 39 52 -5 -3 -7 0 -4 9 3 8 12 12 20 9 20 -7 17 14 -3 26 -10 5 -14
13 -9 18 5 4 11 2 13 -4 6 -18 33 -16 33 2 0 8 6 15 13 15 17 0 63 48 54 57
-4 3 -15 -1 -25 -10 -26 -23 -35 -21 -15 3 10 11 27 20 38 20 11 0 27 5 35 11
11 8 5 9 -22 4 -22 -3 -38 -2 -38 3 0 13 48 25 62 16 11 -7 57 43 58 64 0 6 6
12 13 12 13 1 53 50 39 50 -4 0 -13 -5 -18 -10 -8 -8 -26 -7 -60 0 -32 8 -145
10 -323 8 -251 -3 -275 -4 -279 -20 -2 -10 -9 -18 -15 -18 -19 0 -56 -51 -50
-67 4 -11 2 -14 -6 -9 -16 10 -43 -13 -37 -31 3 -7 -1 -13 -8 -13 -22 0 -46
-34 -36 -50 5 -8 10 -19 10 -25 -1 -5 -5 -2 -11 8 -5 9 -17 17 -26 17 -13 0
-13 -3 -3 -15 10 -12 9 -15 -7 -15 -20 0 -83 -74 -83 -97 0 -7 -7 -13 -15 -13
-18 0 -20 -27 -3 -32 16 -6 1 -28 -19 -28 -10 0 -13 6 -9 16 4 11 1 14 -12 12
-9 -2 -16 -10 -15 -16 4 -16 -5 -15 -23 3 -9 8 -12 20 -9 25 4 6 -1 22 -9 36
-14 21 -20 23 -39 14 -20 -10 -20 -10 -4 3 9 8 17 17 17 21 0 12 -19 6 -36
-11 -20 -20 -20 -22 3 34 4 11 3 14 -5 9 -7 -4 -12 -1 -12 9 0 11 -5 15 -15
11 -8 -3 -14 -2 -14 2 3 19 -2 23 -16 12 -9 -8 -15 -8 -15 -2 0 6 5 12 12 14
6 2 8 10 4 17 -5 7 -15 10 -23 7 -11 -5 -14 -1 -10 13 6 25 -25 51 -54 44 -15
-4 -20 -3 -15 6 4 6 12 9 17 6 5 -3 6 1 3 9 -7 19 -20 21 -28 4 -2 -7 -4 -2
-3 12 2 21 -2 25 -22 22 -26 -3 -52 24 -43 46 3 8 -1 18 -9 23 -8 5 -157 9
-331 9 -311 0 -318 0 -318 -20 l0 -20 -20 20 c-25 25 -48 27 -29 3z"/>
</g>
</svg>
