<!-- Generated by IcoMoon.io -->
<svg version="1.1" xmlns="http://www.w3.org/2000/svg" width="32" height="32" viewBox="0 0 32 32">
<title>television</title>
<path d="M29.867 7.46h-12.891l3.771-6.080c0.16-0.267 0.107-0.587-0.16-0.747s-0.587-0.107-0.747 0.16l-3.848 6.204-4.366-6.258c-0.16-0.213-0.48-0.267-0.747-0.107-0.213 0.16-0.267 0.48-0.107 0.747l4.242 6.080h-12.882c-1.173 0-2.133 0.96-2.133 2.133v18.133c0 1.173 0.96 2.133 2.133 2.133h0.533v1.067c0 0.32 0.213 0.533 0.533 0.533s0.533-0.213 0.533-0.533v-1.067h24.533v1.067c0 0.32 0.213 0.533 0.533 0.533s0.533-0.213 0.533-0.533v-1.067h0.533c1.173 0 2.133-0.96 2.133-2.133v-18.133c0-1.173-0.96-2.133-2.133-2.133zM30.933 27.727c0 0.587-0.48 1.067-1.067 1.067h-27.733c-0.587 0-1.067-0.48-1.067-1.067v-18.133c0-0.587 0.48-1.067 1.067-1.067h27.733c0.587 0 1.067 0.48 1.067 1.067v18.133z"></path>
<path d="M20.267 9.593h-14.933c-1.76 0-3.2 1.44-3.2 3.2v11.733c0 1.76 1.44 3.2 3.2 3.2h14.933c1.76 0 3.2-1.44 3.2-3.2v-11.733c0-1.76-1.44-3.2-3.2-3.2zM22.4 24.526c0 1.173-0.96 2.133-2.133 2.133h-14.933c-1.173 0-2.133-0.96-2.133-2.133v-11.733c0-1.173 0.96-2.133 2.133-2.133h14.933c1.173 0 2.133 0.96 2.133 2.133v11.733z"></path>
<path d="M29.333 12.26h-4.267c-0.32 0-0.533 0.213-0.533 0.533s0.213 0.533 0.533 0.533h4.267c0.32 0 0.533-0.213 0.533-0.533s-0.213-0.533-0.533-0.533z"></path>
<path d="M29.333 14.393h-4.267c-0.32 0-0.533 0.213-0.533 0.533s0.213 0.533 0.533 0.533h4.267c0.32 0 0.533-0.213 0.533-0.533s-0.213-0.533-0.533-0.533z"></path>
<path d="M29.333 16.526h-4.267c-0.32 0-0.533 0.213-0.533 0.533s0.213 0.533 0.533 0.533h4.267c0.32 0 0.533-0.213 0.533-0.533s-0.213-0.533-0.533-0.533z"></path>
<path d="M29.333 18.66h-4.267c-0.32 0-0.533 0.213-0.533 0.533v4.267c0 0.32 0.213 0.533 0.533 0.533h4.267c0.32 0 0.533-0.213 0.533-0.533v-4.267c0-0.32-0.213-0.533-0.533-0.533zM28.8 22.927h-3.2v-3.2h3.2v3.2z"></path>
<path d="M6.56 11.886l-2.133 2.133c-0.213 0.213-0.213 0.533 0 0.747 0.107 0.107 0.213 0.16 0.373 0.16s0.267-0.053 0.373-0.16l2.133-2.133c0.213-0.213 0.213-0.533 0-0.747s-0.533-0.213-0.747 0z"></path>
<path d="M4.96 16.153l-0.533 0.533c-0.213 0.213-0.213 0.533 0 0.747 0.107 0.107 0.213 0.16 0.373 0.16s0.267-0.053 0.373-0.16l0.533-0.533c0.213-0.213 0.213-0.533 0-0.747s-0.533-0.213-0.747 0z"></path>
<path d="M9.76 11.353l-1.6 1.6c-0.213 0.213-0.213 0.533 0 0.747 0.107 0.107 0.213 0.16 0.373 0.16s0.267-0.053 0.373-0.16l1.6-1.6c0.213-0.213 0.213-0.533 0-0.747s-0.533-0.213-0.747 0z"></path>
<path d="M6.933 14.393c-0.32 0-0.533 0.213-0.533 0.533s0.213 0.533 0.533 0.533 0.533-0.213 0.533-0.533-0.213-0.533-0.533-0.533z"></path>
</svg>
