<!-- Generated by IcoMoon.io -->
<svg version="1.1" xmlns="http://www.w3.org/2000/svg" width="32" height="32" viewBox="0 0 32 32">
<title>fridge</title>
<path d="M10.998 8.354c0.34 0 0.602-0.262 0.602-0.602v-2.566c0-0.34-0.262-0.602-0.602-0.602s-0.602 0.262-0.602 0.602v2.566c0 0.34 0.262 0.602 0.602 0.602z"></path>
<path d="M10.998 12.412c-0.34 0-0.602 0.262-0.602 0.602v2.566c0 0.34 0.262 0.602 0.602 0.602s0.602-0.262 0.602-0.602v-2.566c0-0.34-0.262-0.602-0.602-0.602z"></path>
<path d="M7.228 0v29.853h1.859v0.838c0 0.707 0.576 1.283 1.283 1.283s1.283-0.576 1.283-1.283v-0.838h8.668v0.838c0.026 0.733 0.602 1.309 1.309 1.309s1.283-0.576 1.283-1.283v-0.838h1.859v-29.879h-17.545zM10.841 30.717c0 0.262-0.21 0.471-0.471 0.471s-0.471-0.209-0.471-0.471v-0.838h0.943v0.838zM22.101 30.717c0 0.262-0.209 0.471-0.471 0.471s-0.471-0.209-0.471-0.471v-0.838h0.943v0.838zM23.961 29.067h-15.921v-0.445h15.921v0.445zM8.039 27.81v-16.969h15.921v16.969h-15.921zM23.961 10.029h-15.921v-9.218h15.921v9.218z"></path>
</svg>
