<?xml version="1.0" standalone="no"?>
<!DOCTYPE svg PUBLIC "-//W3C//DTD SVG 20010904//EN"
 "http://www.w3.org/TR/2001/REC-SVG-20010904/DTD/svg10.dtd">
<svg version="1.0" xmlns="http://www.w3.org/2000/svg"
 width="3072.000000pt" height="1512.000000pt" viewBox="0 0 3072.000000 1512.000000"
 preserveAspectRatio="xMidYMid meet">
<metadata>
Created by potrace 1.15, written by Peter Selinger 2001-2017
</metadata>
<g transform="translate(0.000000,1512.000000) scale(0.100000,-0.100000)"
fill="#000000" stroke="none">
<path d="M2787 14928 c-10 -38 -2538 -12171 -2544 -12205 l-6 -33 1791 0 1790
0 5 23 c3 12 263 1273 577 2802 314 1529 573 2781 574 2782 1 1 333 -1258 737
-2800 l736 -2802 1240 -3 1240 -2 10 47 c103 519 1099 5353 1103 5353 4 0 309
-1283 1253 -5277 l29 -123 1831 0 c1007 0 1827 4 1822 8 -6 5 -50 24 -100 42
-133 49 -346 147 -492 228 -644 355 -1188 872 -1542 1467 -301 505 -471 1014
-558 1670 -25 189 -25 697 0 885 92 684 352 1313 784 1891 173 232 290 366
513 589 283 284 559 511 869 715 119 79 131 89 119 105 -423 585 -700 1291
-779 1990 -16 136 -16 525 0 660 45 399 204 770 466 1095 90 111 301 318 415
406 246 191 553 363 830 465 l104 39 -3234 3 c-1779 1 -3237 -1 -3241 -5 -5
-6 -1371 -4648 -1432 -4865 -1 -4 -174 617 -385 1380 -211 763 -515 1861 -675
2440 l-291 1052 -1777 0 -1777 0 -5 -22z"/>
<path d="M15534 8654 c-332 -227 -641 -581 -814 -936 -267 -545 -285 -1145
-55 -1783 131 -363 284 -598 571 -875 330 -319 683 -496 1110 -556 157 -22
488 -14 644 15 197 36 389 92 585 171 191 76 511 253 509 281 -1 12 -2448
3694 -2474 3722 -4 4 -38 -13 -76 -39z"/>
<path d="M18953 3345 c-377 -229 -935 -491 -1290 -607 -56 -18 -102 -36 -103
-40 0 -5 459 -8 1021 -8 800 0 1020 3 1017 12 -9 26 -503 717 -513 717 -5 -1
-65 -34 -132 -74z"/>
<path d="M628 1480 c-209 -36 -376 -183 -445 -394 -35 -109 -45 -351 -18 -473
49 -224 205 -394 411 -448 76 -20 251 -20 329 0 172 44 287 153 352 333 13 36
20 68 16 73 -8 7 -234 79 -250 79 -5 0 -15 -21 -21 -47 -58 -223 -306 -297
-468 -139 -64 63 -90 130 -105 266 -12 114 0 251 30 329 67 178 267 250 429
155 48 -28 97 -90 107 -134 4 -17 10 -32 15 -35 4 -3 66 9 138 26 149 36 143
25 84 149 -95 202 -334 305 -604 260z"/>
<path d="M1876 1475 c-220 -46 -382 -205 -443 -435 -25 -93 -25 -359 0 -450
31 -114 74 -188 156 -271 124 -124 244 -169 451 -169 205 0 327 46 447 165 79
79 128 165 160 285 25 92 25 349 0 438 -59 211 -183 349 -375 415 -72 25 -105
30 -206 33 -80 2 -144 -1 -190 -11z m321 -256 c129 -62 193 -196 193 -398 -1
-202 -68 -337 -202 -408 -47 -25 -63 -28 -148 -28 -85 0 -101 3 -148 28 -138
72 -202 203 -202 410 0 155 35 262 110 337 102 102 261 126 397 59z"/>
<path d="M10732 1479 c-131 -22 -227 -74 -321 -175 -116 -124 -163 -265 -162
-494 0 -225 50 -369 171 -491 126 -126 271 -175 494 -166 134 5 189 18 282 65
247 126 361 444 287 802 -47 235 -225 411 -456 455 -85 16 -211 18 -295 4z
m273 -246 c69 -23 154 -109 183 -184 48 -130 49 -326 1 -454 -91 -244 -433
-291 -582 -79 -45 63 -64 119 -77 218 -22 160 15 323 92 410 91 104 235 138
383 89z"/>
<path d="M12125 1479 c-185 -31 -342 -147 -424 -312 -57 -116 -74 -196 -74
-347 1 -285 114 -494 321 -598 119 -59 204 -76 371 -70 119 4 148 9 228 36
109 37 180 72 246 119 l47 35 0 264 0 264 -285 0 -285 0 0 -115 0 -115 150 0
150 0 0 -75 0 -75 -47 -30 c-89 -57 -149 -74 -253 -75 -82 0 -103 4 -150 26
-76 36 -121 78 -157 146 -96 183 -77 460 40 590 98 108 284 141 415 74 47 -24
103 -84 122 -131 7 -19 14 -36 15 -37 1 -2 60 8 131 22 71 14 131 25 133 25
11 0 -16 85 -46 143 -65 123 -184 205 -340 232 -85 16 -229 17 -308 4z"/>
<path d="M13809 1475 c-133 -26 -244 -107 -292 -213 -34 -72 -31 -207 5 -284
56 -121 154 -184 382 -245 214 -57 258 -73 295 -110 31 -31 33 -37 29 -82 -6
-64 -36 -104 -102 -136 -100 -49 -260 -31 -334 38 -29 26 -67 99 -77 146 l-7
33 -72 -6 c-39 -4 -99 -9 -133 -13 l-62 -6 5 -31 c11 -62 36 -141 61 -189 52
-103 172 -189 301 -216 78 -16 295 -14 371 4 194 46 310 179 319 366 9 188
-70 313 -245 383 -34 14 -130 43 -213 66 -83 22 -174 50 -201 61 -93 41 -115
105 -56 164 41 41 90 55 187 55 123 -1 187 -43 213 -139 l12 -44 134 6 c73 4
135 8 136 9 2 2 -1 30 -6 63 -19 121 -96 228 -203 280 -103 50 -304 68 -447
40z"/>
<path d="M16658 1480 c-208 -35 -376 -185 -445 -394 -35 -109 -45 -351 -18
-473 50 -231 221 -410 433 -454 87 -18 283 -6 361 21 126 45 240 161 290 295
37 100 42 93 -94 137 -66 21 -124 38 -130 38 -5 0 -18 -27 -27 -59 -48 -162
-203 -247 -358 -196 -73 24 -150 101 -178 176 -48 130 -48 368 -1 494 59 159
251 235 403 161 61 -30 110 -82 127 -136 6 -19 15 -38 18 -43 4 -4 66 7 138
24 150 36 143 24 87 147 -92 202 -336 307 -606 262z"/>
<path d="M17790 1474 c-197 -42 -314 -170 -314 -344 -1 -102 23 -166 87 -237
68 -74 160 -117 372 -173 176 -47 223 -66 254 -106 41 -52 22 -140 -41 -187
-49 -36 -92 -47 -182 -47 -142 0 -225 60 -262 187 -10 36 -21 53 -32 53 -9 0
-67 -5 -129 -11 -112 -12 -113 -12 -113 -38 0 -14 7 -50 15 -80 45 -171 156
-281 330 -326 77 -20 298 -20 380 -1 138 33 236 105 291 213 27 55 29 65 29
178 0 137 -14 180 -81 254 -68 76 -144 111 -379 172 -177 47 -249 78 -271 121
-45 87 47 158 205 158 119 0 182 -40 216 -136 l13 -39 132 2 c73 1 134 4 137
7 12 12 -21 138 -51 192 -58 104 -162 170 -308 194 -86 14 -220 11 -298 -6z"/>
<path d="M20015 1474 c-110 -24 -190 -69 -272 -150 -122 -121 -172 -251 -180
-475 -10 -243 45 -409 175 -538 116 -115 234 -161 414 -161 176 0 291 42 391
141 60 61 136 197 140 254 2 28 0 29 -118 67 -66 21 -126 36 -132 33 -7 -2
-13 -12 -13 -22 0 -31 -50 -126 -83 -161 -70 -74 -175 -99 -282 -68 -45 14
-69 29 -110 70 -74 74 -96 144 -102 326 -9 249 47 376 192 441 61 28 170 30
228 5 57 -25 112 -80 137 -139 12 -28 23 -53 25 -55 2 -3 258 58 263 62 7 8
-50 140 -77 180 -57 82 -151 148 -260 182 -71 23 -252 27 -336 8z"/>
<path d="M21293 1476 c-179 -34 -318 -142 -402 -313 -50 -100 -64 -178 -65
-348 0 -169 18 -257 77 -370 41 -79 155 -192 231 -228 111 -54 149 -62 316
-62 132 0 165 3 225 22 176 56 312 193 371 377 36 109 45 320 20 447 -46 232
-201 405 -416 465 -78 21 -269 27 -357 10z m302 -250 c138 -63 205 -192 205
-397 0 -125 -13 -190 -52 -268 -127 -252 -485 -237 -605 25 -55 122 -54 347 3
474 30 67 102 142 161 166 92 39 203 39 288 0z"/>
<path d="M2833 998 c5 -499 9 -543 53 -631 52 -101 167 -183 293 -207 69 -13
283 -13 352 0 121 23 232 99 280 192 49 95 52 122 56 636 l5 482 -135 0 -136
0 -3 -467 c-4 -520 -2 -509 -71 -570 -47 -41 -104 -56 -192 -51 -108 7 -174
49 -212 133 -16 36 -18 84 -21 498 l-3 457 -136 0 -135 0 5 -472z"/>
<path d="M4100 821 l0 -651 140 0 140 0 0 271 0 271 78 -7 c138 -13 151 -25
364 -342 l128 -193 160 0 c88 0 160 3 160 7 0 9 -183 301 -237 379 -42 60
-115 134 -163 165 l-25 16 60 17 c181 52 275 188 262 377 -8 125 -62 222 -154
276 -87 50 -128 55 -535 60 l-378 5 0 -651z m721 391 c49 -30 73 -81 67 -144
-6 -59 -31 -96 -83 -122 -32 -16 -68 -20 -231 -24 l-194 -5 0 162 0 162 203
-3 c190 -3 204 -4 238 -26z"/>
<path d="M5370 820 l0 -650 135 0 135 0 0 650 0 650 -135 0 -135 0 0 -650z"/>
<path d="M5840 820 l0 -650 500 0 500 0 0 110 0 110 -360 0 -360 0 0 175 0
175 320 0 320 0 0 110 0 110 -320 0 -320 0 0 140 0 140 345 0 345 0 0 115 0
115 -485 0 -485 0 0 -650z"/>
<path d="M7020 821 l0 -651 135 0 135 0 0 271 0 272 77 -7 c42 -4 90 -13 108
-20 46 -20 101 -87 252 -313 l137 -203 164 0 164 0 -14 23 c-8 12 -50 78 -93
147 -155 248 -201 308 -286 370 l-39 28 48 12 c117 32 196 94 241 189 23 49
26 69 26 161 0 94 -3 111 -28 165 -33 70 -76 118 -132 148 -87 45 -131 49
-522 54 l-373 5 0 -651z m708 396 c103 -56 96 -218 -12 -271 -33 -16 -69 -20
-232 -24 l-194 -5 0 162 0 162 203 -3 c171 -3 207 -6 235 -21z"/>
<path d="M13030 820 l0 -650 135 0 135 0 0 650 0 650 -135 0 -135 0 0 -650z"/>
<path d="M14590 1355 l0 -115 190 0 190 0 0 -535 0 -535 135 0 135 0 0 535 0
535 190 0 190 0 0 115 0 115 -515 0 -515 0 0 -115z"/>
<path d="M15740 820 l0 -650 135 0 135 0 0 650 0 650 -135 0 -135 0 0 -650z"/>
<path d="M22240 821 l0 -651 308 0 c177 0 334 5 368 11 32 6 91 26 131 45 211
101 315 354 283 692 -26 285 -153 468 -365 528 -49 14 -121 18 -392 21 l-333
5 0 -651z m655 385 c94 -47 138 -127 156 -284 14 -122 0 -281 -32 -366 -26
-71 -77 -122 -141 -141 -27 -8 -119 -17 -204 -21 l-154 -7 0 428 0 428 160 -5
c148 -5 163 -7 215 -32z"/>
<path d="M9230 815 l0 -645 460 0 460 0 0 110 0 110 -325 0 -325 0 0 535 0
535 -135 0 -135 0 0 -645z"/>
</g>
</svg>
