<?xml version="1.0" standalone="no"?>
<!DOCTYPE svg PUBLIC "-//W3C//DTD SVG 20010904//EN"
 "http://www.w3.org/TR/2001/REC-SVG-20010904/DTD/svg10.dtd">
<svg version="1.0" xmlns="http://www.w3.org/2000/svg"
 width="403.000000pt" height="479.000000pt" viewBox="0 0 403.000000 479.000000"
 preserveAspectRatio="xMidYMid meet">
<metadata>
Created by potrace 1.15, written by Peter Selinger 2001-2017
</metadata>
<g transform="translate(0.000000,479.000000) scale(0.100000,-0.100000)"
fill="#000000" stroke="none">
<path d="M1575 4779 c-240 -19 -484 -57 -755 -119 -212 -47 -474 -142 -688
-247 l-133 -65 4 -1317 c3 -1280 4 -1318 24 -1406 48 -212 130 -418 223 -556
105 -156 247 -299 393 -398 211 -141 612 -348 1007 -520 118 -52 244 -107 279
-122 35 -16 74 -29 87 -29 21 0 201 72 344 138 36 17 112 51 170 77 108 48
577 281 595 295 6 4 37 22 70 40 438 237 697 574 808 1049 l22 96 3 1327 2
1328 -108 54 c-410 205 -915 334 -1477 376 -159 11 -720 11 -870 -1z m908 -35
c529 -44 998 -161 1374 -344 l134 -65 -1 -1186 c0 -1178 -4 -1356 -36 -1519
-72 -382 -285 -709 -596 -918 -229 -154 -593 -339 -1117 -568 -117 -52 -218
-94 -223 -94 -10 0 -245 99 -463 195 -71 31 -134 58 -140 60 -64 16 -466 218
-617 308 -226 135 -380 271 -497 437 -108 153 -199 369 -243 577 l-23 108 -3
1296 -3 1296 78 41 c321 166 750 292 1199 351 377 50 780 58 1177 25z"/>
<path d="M2800 4313 c-19 -1 -107 -7 -195 -13 -157 -11 -331 -31 -450 -52 -33
-6 -71 -12 -85 -14 -41 -5 -141 -24 -202 -40 -133 -33 -185 -47 -223 -59 -22
-7 -60 -18 -85 -25 -25 -7 -62 -18 -82 -26 -132 -49 -197 -74 -233 -90 -16 -7
-48 -20 -70 -30 -300 -128 -643 -348 -872 -560 l-93 -86 0 -676 c0 -388 5
-728 11 -797 30 -352 148 -617 373 -841 111 -111 182 -162 397 -285 213 -123
975 -489 1016 -489 32 0 636 278 863 397 311 163 466 266 587 391 199 205 316
465 353 787 10 96 15 2402 4 2442 -7 27 -26 31 -174 38 -63 3 -155 10 -205 16
-83 9 -554 18 -635 12z m-1599 -395 c-110 -354 -280 -828 -338 -942 -38 -75
-94 -207 -103 -241 -4 -16 -8 95 -9 248 l-1 277 -194 0 c-107 0 -201 -3 -210
-6 -14 -5 -16 -33 -17 -203 -1 -163 -12 -359 -17 -314 -1 7 -15 40 -31 73 -29
59 -30 65 -37 278 l-7 217 102 90 c241 212 496 378 769 501 53 24 98 44 99 44
1 0 -2 -10 -6 -22z m1002 -654 c299 -66 474 -315 507 -721 24 -296 -38 -580
-165 -758 -120 -168 -275 -241 -497 -233 l-108 3 0 -356 0 -356 -92 -7 c-121
-8 -250 -8 -265 2 -8 5 -13 301 -19 1159 l-7 1151 79 40 c167 84 394 114 567
76z m1239 -13 c72 -19 152 -54 190 -84 14 -11 17 -39 20 -189 l3 -175 -53 48
c-82 75 -171 120 -247 127 -196 15 -290 -181 -144 -299 24 -19 88 -62 142 -95
188 -113 300 -228 333 -341 22 -77 22 -260 0 -338 -27 -91 -63 -154 -125 -215
-157 -157 -414 -182 -688 -68 l-73 30 0 185 0 185 40 -36 c104 -94 290 -149
391 -115 139 47 151 235 22 337 -21 16 -91 64 -157 106 -236 153 -306 264
-306 483 0 146 47 253 152 348 125 113 316 153 500 106z m-2712 -624 l0 -613
28 -55 c36 -72 73 -92 163 -86 36 2 78 10 94 18 l28 14 -1 668 -1 667 195 0
c107 0 193 -4 190 -8 -3 -5 -6 -354 -7 -776 -2 -531 -6 -769 -13 -775 -31 -25
-149 -76 -225 -98 -67 -19 -119 -26 -233 -30 -226 -9 -337 20 -436 112 -69 64
-105 127 -133 232 -20 74 -21 99 -18 543 2 256 4 537 4 625 l0 160 50 6 c28 3
110 6 183 7 l132 2 0 -613z"/>
<path d="M1963 2960 l-23 -9 0 -539 0 -539 38 -7 c111 -18 185 4 245 74 45 53
72 124 93 243 21 122 15 467 -10 574 -35 146 -114 214 -250 212 -39 0 -81 -4
-93 -9z"/>
</g>
</svg>
